<?xml version="1.0" encoding="UTF-8"?>
<svg width="300mm" height="300mm" version="1.1" viewBox="0 0 300 300" xmlns="http://www.w3.org/2000/svg" xmlns:cc="http://creativecommons.org/ns#" xmlns:dc="http://purl.org/dc/elements/1.1/" xmlns:rdf="http://www.w3.org/1999/02/22-rdf-syntax-ns#">
<metadata>
<rdf:RDF>
<cc:Work rdf:about="">
<dc:format>image/svg+xml</dc:format>
<dc:type rdf:resource="http://purl.org/dc/dcmitype/StillImage"/>
<dc:title/>
</cc:Work>
</rdf:RDF>
</metadata>
<g transform="translate(276.68 28.702)">
<g transform="translate(-133.29 72.25)">
<path d="m-55.185 108.77 41.577-7.5595 19.655 79.375z" fill="#ccc"/>
<path d="m-13.607-26.548 48.381-2.2679 1.5119 129.27-49.893 0.75595z" fill="#85bcc9" fill-opacity=".96863"/>
<path d="m32.506 122.38-26.458 58.208 62.367-73.027z" fill="none"/>
<path d="m-55.185-13.696 27.97 24.946-2e-6 114.15-27.97-16.631z" fill="#fff" fill-opacity=".609"/>
<path d="m-55.185 108.77 61.232 71.815-33.262-55.185z" fill="#ccc"/>
<path d="m-27.214 11.25 61.232-4.5357-1.5119 115.66-59.72 3.0238z" fill="none"/>
<path d="m32.506 122.38-26.458 58.208 62.367-73.027z" fill="#c7f4ff" fill-opacity=".76471"/>
<path d="m34.018 6.7143-61.232 4.5357 28.726-93.738z" fill="#a4c2c9" fill-opacity=".84429"/>
<path d="m-55.185-13.696 41.577-12.851 15.119-55.94z" fill="none"/>
<path d="m-13.607-26.548 48.381-2.2679-33.262-53.673z" fill="none"/>
<path d="m-55.185 108.77 41.577-7.5595v-127.76l-41.577 12.851z" fill="#88b2bb" fill-opacity=".42907"/>
<path d="m36.286 100.45-30.238 80.131-19.655-79.375z" fill="#5aa4b6" fill-opacity=".96863"/>
<path d="m34.774-28.815 33.262 13.607-66.524-67.28z" fill="#5aa4b6" fill-opacity=".34948"/>
<path d="m36.286 100.45 32.129 7.1036-62.367 73.027z" fill="#cadde1" fill-opacity=".42907"/>
<path d="m-27.214 11.25 28.726-93.738-56.696 68.792z" fill="#f9f9f9"/>
<path d="m34.018 6.7143 34.018-21.923 0.37929 122.76-35.909 14.819z" fill="#e6e6e6" fill-opacity=".7474"/>
<path d="m32.506 122.38-59.72 3.0238 33.262 55.185z" fill="#c7f4ff" fill-opacity=".96863"/>
<path d="m34.018 6.7143-32.506-89.202 66.524 67.28z" fill="#e6e6e6" fill-opacity=".57785"/>
</g>
</g>
</svg>
