<?xml version="1.0" encoding="UTF-8"?>
<svg width="102.13mm" height="86.6mm" version="1.1" viewBox="0 0 102.13 86.6" xmlns="http://www.w3.org/2000/svg" xmlns:cc="http://creativecommons.org/ns#" xmlns:dc="http://purl.org/dc/elements/1.1/" xmlns:rdf="http://www.w3.org/1999/02/22-rdf-syntax-ns#">
<metadata>
<rdf:RDF>
<cc:Work rdf:about="">
<dc:format>image/svg+xml</dc:format>
<dc:type rdf:resource="http://purl.org/dc/dcmitype/StillImage"/>
<dc:title/>
</cc:Work>
</rdf:RDF>
</metadata>
<path transform="scale(.26458)" d="m193 51.471-75.398 69.896 231.26 88.801v-14.211l-155.86-144.49zm-87.363 80.988-68.496 63.498v131.35h41.084v-96.883h70.848v96.883h199.79v-101.45l-243.23-93.396zm96.094 94.887h37.711v50.465h-37.711v-50.465zm56.08 0h37.711v50.465h-37.711v-50.465z" fill="#767676" opacity=".967" stroke-width="3.3421"/>
<path transform="scale(.26458)" d="m193 0-114.66 106.29 19.773 7.5918 94.877-87.949 179.02 165.95 13.982-12.961-179.02-165.95 0.00782-0.005859-13.984-12.965zm-126.63 117.38-66.381 61.535 13.982 12.961 72.174-66.904-19.775-7.5918z" fill="#767676" opacity=".967" stroke-width="3.3421"/>
<rect transform="matrix(.93354 .35847 -.36616 .93055 0 0)" x="10.557" y="22.699" width="107.69" height="3.875" fill="#030303" opacity=".967"/>
</svg>
