<?xml version="1.0" encoding="UTF-8"?>
<svg width="129.72mm" height="125.73mm" version="1.1" viewBox="0 0 129.72 125.73" xmlns="http://www.w3.org/2000/svg">
 <g transform="translate(59.569 22.133)">
  <g transform="translate(1.8901 162.48)" fill-opacity=".96863">
   <path d="m17.462-184.61a24.342 27.517 0 0 0-24.337 27.41 9.525 8.9958 0 0 0-4.238-0.95137 9.525 8.9958 0 0 0-9.525 8.9958 9.525 8.9958 0 0 0 1.373 4.6349 25.4 22.754 0 0 0-10.898 18.648 25.4 22.754 0 0 0 12.958 19.823 21.167 12.7 0 0 0-0.25787 1.8728 21.167 12.7 0 0 0 21.167 12.7 21.167 12.7 0 0 0 8.5623-1.1028l-2.1828 32.83h15.816l-3.8375-33.506a23.283 18.521 0 0 0 12.334 2.8381 23.283 18.521 0 0 0 23.283-18.521 23.283 18.521 0 0 0-0.08268-1.4692 30.162 21.696 0 0 0 10.666-16.523 30.162 21.696 0 0 0-15.277-18.853 11.642 8.9958 0 0 0 1.5188-4.4307 11.642 8.9958 0 0 0-11.642-8.9958 11.642 8.9958 0 0 0-1.1322 0.0512 24.342 27.517 0 0 0-24.268-25.451z" opacity=".967"/>
   <path d="m-33.891-109.75-0.94948 0.077-0.54185 0.2671-0.07221 0.0356-0.0683 0.0442-0.67921 0.44461-0.06541 0.0423-0.06017 0.0503-0.65461 0.54478-0.05729 0.0481-0.0526 0.0537-0.35086 0.36392-0.41154 1.0484 0.43012 1.0411 1.0039 0.38702 0.87202-0.40705 0.30272-0.31217 0.52798-0.43961 0.55179-0.36169 0.4686-0.23038 0.71401-0.84443-0.08112-1.1335zm-12.391 0.0434-0.76031 0.79684 0.01776 1.1368 0.66848 0.72035 0.46781 0.23037 0.55257 0.3617 0.53217 0.44377 0.29853 0.30801 0.99683 0.40928 0.96597-0.48496 0.33828-1.0779-0.40632-0.91594-0.35111-0.36365-0.05233-0.0537-0.05757-0.0484-0.65461-0.54477-0.06017-0.0504-0.06541-0.042-0.68025-0.44489-0.06724-0.0442-0.07325-0.0356-0.54186-0.2671zm-4.5229 0.25318-0.93169 0.21034-0.55467 0.37645-0.06724 0.0453-0.06226 0.0537-0.61903 0.53837-0.06046 0.0514-0.05335 0.059-0.58135 0.63408-0.05153 0.0556-0.04554 0.0609-0.2619 0.35558-0.27604 1.0979 0.55573 0.97047 1.0444 0.24178 0.81264-0.52668 0.21376-0.2902 0.47749-0.52168 0.49946-0.43432 0.48952-0.33109 0.60228-0.9382-0.2216-1.1115zm21.432 0.0264-0.85344 0.68361-0.1235 1.1282 0.57246 0.80881 0.49267 0.33416 0.49631 0.43126 0.47357 0.51751 0.21768 0.29437 0.93639 0.5456 1.0185-0.34361 0.46964-1.0203-0.2878-0.96519-0.2619-0.35557-0.04554-0.0609-0.05153-0.0556-0.58136-0.63408-0.05442-0.059-0.0594-0.0514-0.61903-0.53837-0.06226-0.0537-0.06724-0.0453-0.55571-0.37644zm-9.427 6.2496-1.0617 0.12715-0.1868 0.23789-0.25718-0.2977-1.068-0.0222-0.75246 0.80548-0.01802 0.97909-0.0067 2e-3 6e-3 0.0242v8e-3l0.0078 0.0253 0.28858 1.1471 0.22553 1.2504 0.0099 0.08625 0.53583 0.98327 1.0384 0.26599 0.05181-0.03533 0.09446 0.05237 1.0115-0.36809 0.43929-0.89813 0.0078-0.07679 0.22737-1.2598 0.28884-1.1472 0.0078-0.0253v-7e-3l6e-3 -0.025-0.0081-3e-3 -0.06802-1.101zm-16.095 0.90231-1.0363 0.27433-0.50915 0.85612-0.03559 0.18391-0.011 0.0545-7e-3 0.0548-0.1583 1.2988-0.0063 0.05144-0.0032 0.05262-0.07505 1.387 0.36289 1.0684 0.97694 0.45964 0.98794-0.43543 0.38356-0.92651 0.07221-1.3344 0.14521-1.1894 0.02589-0.13551-0.2106-1.1138zm29.611 0.0262-0.84744 0.69307-0.14442 1.0011 0.02486 0.12604 0.14731 1.1989 0.07115 1.3344 0.4767 1.0169 1.0204 0.33666 0.93351-0.55229 0.28179-0.9674-0.0751-1.387-0.0032-0.05262-0.0058-0.05144-0.15934-1.2988-0.0067-0.0548-0.0099-0.0546-0.03663-0.18419-0.61196-0.93041zm-14.923 7.5829-0.98192 0.44601-0.37571 0.93068-0.04734 1.0715-1e-3 0.0125v0.0125l-0.05155 1.8152 0.39063 1.0567 0.99003 0.43014 0.27994-0.13327 0.35687 0.1291 0.94712-0.52474 0.30664-0.95794-0.05048-1.8152-1e-3 -0.0125v-0.0125l-0.04763-1.0715-0.46676-1.0222-1.0165-0.34807-0.09602 0.05539zm0.43824 8.6641-0.28414 0.13494-0.36158-0.13077-0.61041 0.33805h-10.792v7.9774h-9.6449v18.804h42.866v-18.804h-9.6449v-7.9774h-10.742z" opacity=".967"/>
  </g>
 </g>
</svg>
