<?xml version="1.0" encoding="UTF-8"?>
<svg width="67.722mm" height="64.416mm" version="1.1" viewBox="0 0 67.722 64.416" xmlns="http://www.w3.org/2000/svg">
 <g transform="translate(-30.023 -20.788)" stroke="#060101" stroke-linecap="round" stroke-width=".92604">
  <g>
   <path d="m49.781 34.054c8.0761-6.7438 22.573-3.0261 22.378-2.0552 13.569 6.4709 11.197 23.944 11.189 30.485s-12.573 12.056-13.458 12.552c-0.88546 0.49682-4.3761 1.7339-11.204 1.1487s-13.754-0.02329-17.012-6.6222c-0.37634-3.678 0.39903-3.5001-0.22835-7.3072-0.62738-3.8071-2.1452-8.8485-0.47343-13.728 1.6718-4.88 0.73216-7.7291 8.8082-14.473z" fill="#755944" fill-opacity=".99608"/>
   <path d="m68.698 42.05c3.1267-3.2276 8.2617-5.3735 10.912-5.3735 4.2988 1e-6 9.6722 3.1414 10.086 11.491 0.41334 8.3495 0.16534 16.203-6.3655 18.022-6.5308 1.8187-8.4322 0.74402-10.003-0.16534-1.5707-0.90936-7.7562-20.746-4.6294-23.974z" fill="#bb9678"/>
   <path d="m53.891 38.05c4.7748-1.0842 8.2206-0.34253 8.2206-0.34253 13.569 6.4709 14.508 18.235 14.5 24.776-0.0075 6.5411-4.6935 9.8191-6.6476 10.947-1.9542 1.1278-6.4781 3.369-11.278 2.7541s-13.754-0.02329-17.012-6.6222c-0.37634-3.678 0.39903-3.5001-0.22835-7.3072-0.62738-3.8071-1.4434-8.2502 0.22835-13.13s7.442-9.9908 12.217-11.075z" fill="#fef4e3"/>
  </g>
  <path d="m58.458 54.605 7.8781-3.5394 2.626 3.1969z" stroke-linejoin="round"/>
  <path d="m46.584 52.664 7.9923 2.0552-10.847 0.34253z" stroke-linejoin="round"/>
  <path d="m58.408 57.04 9.2482 0.11418" fill="none"/>
  <ellipse cx="45.525" cy="60.335" rx=".17675" ry=".27775" fill="#e9df5d"/>
  <ellipse cx="60.132" cy="59.616" rx=".11362" ry=".41662" fill="#e9df5d"/>
  <path d="m53.908 57.482c-4.1409-0.1515-7.7769 0.37874-10.176 0.3535" fill="none"/>
  <path d="m53.504 71.42c-0.56296 0.02153-1.3887-0.11362-1.4392-0.80799-0.0505-0.69437 0.50499-1.0352 1.4392-1.0857 0.93424 0.07575 1.4897 0.02525 1.4392 0.93424-0.0505 0.90899-0.87626 0.93796-1.4392 0.95948z" fill="none"/>
 </g>
</svg>
