<?xml version="1.0" encoding="UTF-8"?>
<svg width="155.72mm" height="155.72mm" version="1.1" viewBox="0 0 155.72 155.72" xmlns="http://www.w3.org/2000/svg">
 <path d="m62.086 65.904s-18.995-58.271-25.283-57.653c-7.7582 0.76334-21.483 64.768-20.764 77.873 0.71879 13.105 9.3794 23.27 9.3794 23.27" fill="#1a1a1a" stroke="#000" stroke-width=".26458px"/>
 <path d="m57.586 67.731s-14.24-48.712-18.955-48.195c-5.8162 0.63812-16.105 54.143-15.566 65.099 0.53887 10.955 7.0316 19.453 7.0316 19.453" fill="#a0892c"/>
 <path d="m93.636 65.904s18.995-58.271 25.283-57.653c7.7582 0.76334 21.483 64.768 20.764 77.873-0.71879 13.105-9.3794 23.27-9.3794 23.27" fill="#1a1a1a" stroke="#000" stroke-width=".26458px"/>
 <path d="m98.136 67.731s14.24-48.712 18.955-48.195c5.8162 0.63812 16.105 54.143 15.566 65.099-0.53887 10.955-7.0316 19.453-7.0316 19.453" fill="#a0892c"/>
 <path d="m103.36 66.229c14.762 7.3488 29.15 37.652 29.15 37.652l-3.9474 19.433s-26.026 24.536-47.673 24.292-53.442-23.685-53.442-23.685l-4.2511-20.041s14.001-30.97 28.847-38.26 36.555-6.7415 51.317 0.6073z" fill="#1a1a1a"/>
 <path d="m76.676 133.7-0.084 8.8887 2.4648 0.0234 0.084-8.8887z" color="#000000" color-rendering="auto" dominant-baseline="auto" fill="#540" image-rendering="auto" shape-rendering="auto" solid-color="#000000" style="font-feature-settings:normal;font-variant-alternates:normal;font-variant-caps:normal;font-variant-ligatures:normal;font-variant-numeric:normal;font-variant-position:normal;isolation:auto;mix-blend-mode:normal;shape-padding:0;text-decoration-color:#000000;text-decoration-line:none;text-decoration-style:solid;text-indent:0;text-orientation:mixed;text-transform:none;white-space:normal"/>
 <path d="m90.534 122.06c0.23612-5.2017 4.1878-11.718 9.6983-15.606s12.578-3.0371 22.654-3.715c-3.6154 7.9941-7.8949 15.32-14.244 18.362-6.3494 3.0425-14.639 2.4789-18.108 0.95887z" fill="#677821" stroke="#00e200" stroke-width=".26458px"/>
 <path d="m94.424 86.057-3.9102 1.1133 5.8106 20.395 3.9102-1.1133z" color="#000000" color-rendering="auto" dominant-baseline="auto" fill="#a80" image-rendering="auto" shape-rendering="auto" solid-color="#000000" style="font-feature-settings:normal;font-variant-alternates:normal;font-variant-caps:normal;font-variant-ligatures:normal;font-variant-numeric:normal;font-variant-position:normal;isolation:auto;mix-blend-mode:normal;shape-padding:0;text-decoration-color:#000000;text-decoration-line:none;text-decoration-style:solid;text-indent:0;text-orientation:mixed;text-transform:none;white-space:normal"/>
 <path d="m107.65 82.057-3.9512 0.95508 5.1602 21.361 3.9512-0.95508z" color="#000000" color-rendering="auto" dominant-baseline="auto" fill="#a80" image-rendering="auto" shape-rendering="auto" solid-color="#000000" style="font-feature-settings:normal;font-variant-alternates:normal;font-variant-caps:normal;font-variant-ligatures:normal;font-variant-numeric:normal;font-variant-position:normal;isolation:auto;mix-blend-mode:normal;shape-padding:0;text-decoration-color:#000000;text-decoration-line:none;text-decoration-style:solid;text-indent:0;text-orientation:mixed;text-transform:none;white-space:normal"/>
 <path d="m99.454 108.33c-0.58897 4.9274 4.8912 13.027 7.9455 12.213s4.5178-10.466 1.4299-15.598c-1.3767-2.2883-9.0584 0.73379-9.3754 3.3854z" fill="#2e3a00"/>
 <path d="m125.04 95.527s-0.0862 0.2641-0.72461 0.98633c-0.63846 0.72224-1.7506 1.7321-3.625 2.7031-1.5484 0.80212-4.135 1.1169-7.6406 1.584s-7.8788 1.1713-12.961 3.1856c-10.943 4.337-11.807 18.781-11.807 18.781l2.3463 0.35328s2.5639-11.813 11.033-15.169c4.6235-1.8325 8.5407-2.4672 11.953-2.9219 3.4124-0.45463 6.3709-0.64418 9.0371-2.0254 2.3402-1.2123 3.4744-2.1537 4.4446-3.2513s-0.10049-3.3741-0.10049-3.3741z" color="#000000" color-rendering="auto" dominant-baseline="auto" fill="#a80" image-rendering="auto" shape-rendering="auto" solid-color="#000000" style="font-feature-settings:normal;font-variant-alternates:normal;font-variant-caps:normal;font-variant-ligatures:normal;font-variant-numeric:normal;font-variant-position:normal;isolation:auto;mix-blend-mode:normal;shape-padding:0;text-decoration-color:#000000;text-decoration-line:none;text-decoration-style:solid;text-indent:0;text-orientation:mixed;text-transform:none;white-space:normal"/>
 <path d="m90.534 122.06c18.572-0.0576 22.475-2.1528 32.353-19.321-8.1506 22.089-16.612 22.778-32.251 20.381" fill="#a80"/>
 <path d="m65.194 121.53c-0.23612-5.2017-4.1878-11.718-9.6983-15.606s-12.578-3.0371-22.654-3.715c3.6154 7.9941 7.8949 15.32 14.244 18.362 6.3494 3.0425 14.639 2.4789 18.108 0.95887z" fill="#677821" stroke="#00e200" stroke-width=".26458px"/>
 <path d="m61.304 85.53 3.9102 1.1133-5.8106 20.395-3.9102-1.1133z" color="#000000" color-rendering="auto" dominant-baseline="auto" fill="#a80" image-rendering="auto" shape-rendering="auto" solid-color="#000000" style="font-feature-settings:normal;font-variant-alternates:normal;font-variant-caps:normal;font-variant-ligatures:normal;font-variant-numeric:normal;font-variant-position:normal;isolation:auto;mix-blend-mode:normal;shape-padding:0;text-decoration-color:#000000;text-decoration-line:none;text-decoration-style:solid;text-indent:0;text-orientation:mixed;text-transform:none;white-space:normal"/>
 <path d="m48.074 81.53 3.9512 0.95508-5.1602 21.361-3.9512-0.95508z" color="#000000" color-rendering="auto" dominant-baseline="auto" fill="#a80" image-rendering="auto" shape-rendering="auto" solid-color="#000000" style="font-feature-settings:normal;font-variant-alternates:normal;font-variant-caps:normal;font-variant-ligatures:normal;font-variant-numeric:normal;font-variant-position:normal;isolation:auto;mix-blend-mode:normal;shape-padding:0;text-decoration-color:#000000;text-decoration-line:none;text-decoration-style:solid;text-indent:0;text-orientation:mixed;text-transform:none;white-space:normal"/>
 <path d="m56.274 107.8c0.58897 4.9274-4.8912 13.027-7.9455 12.213s-4.5178-10.466-1.4299-15.598c1.3767-2.2883 9.0584 0.73379 9.3754 3.3854z" fill="#222b00"/>
 <g fill="#a80">
  <path d="m30.684 95s0.0862 0.2641 0.72461 0.98633c0.63846 0.72224 1.7506 1.7321 3.625 2.7031 1.5484 0.80212 4.135 1.1169 7.6406 1.584s7.8788 1.1713 12.961 3.1856c10.943 4.337 11.807 18.781 11.807 18.781l-2.3463 0.35328s-2.5639-11.813-11.033-15.169c-4.6235-1.8325-8.5407-2.4672-11.953-2.9219-3.4124-0.45463-6.3709-0.64418-9.0371-2.0254-2.3402-1.2123-3.4744-2.1537-4.4446-3.2513s0.10049-3.3741 0.10049-3.3741z" color="#000000" color-rendering="auto" dominant-baseline="auto" image-rendering="auto" shape-rendering="auto" solid-color="#000000" style="font-feature-settings:normal;font-variant-alternates:normal;font-variant-caps:normal;font-variant-ligatures:normal;font-variant-numeric:normal;font-variant-position:normal;isolation:auto;mix-blend-mode:normal;shape-padding:0;text-decoration-color:#000000;text-decoration-line:none;text-decoration-style:solid;text-indent:0;text-orientation:mixed;text-transform:none;white-space:normal"/>
  <path d="m65.194 121.53c-18.572-0.0576-22.475-2.1528-32.353-19.321 8.1506 22.089 16.612 22.778 32.251 20.381"/>
  <path d="m65.866 130.85c-0.10331-1.5562 8.0312-3.9154 11.977-3.9183 3.9463-3e-3 11.935 1.7416 12.017 3.8854 0.0409 1.0719-9.1194 1.9596-10.694 5.3606-1.3728 0.0721-1.6231 0.0259-2.3038-0.0694-2.1023-3.3909-10.894-3.7021-10.997-5.2583z"/>
 </g>
 <path d="m49.739 129.97s-1.5179 4.2379 1.7849 7.7933l0.0155 0.0134 0.01395 0.0155c6.7118 6.5778 18.663 5.6952 26.301 5.7578l8e-3 -0.88263 8e-3 0.88263c7.6379-0.0626 19.589 0.82003 26.301-5.7578l0.0139-0.0155 0.0134-0.0134c3.3028-3.5554 1.7875-7.7933 1.7875-7.7933h-5.2e-4l-1.6542 0.61908s1.2252 3.0944-1.4159 5.9552c-5.8834 5.7432-17.289 5.1778-25.045 5.2405-5e-3 -4e-5 -0.0106 4e-5 -0.0155 0-7.7562-0.0628-19.162 0.50275-25.045-5.2405-2.6411-2.8608-1.418-5.9552-1.418-5.9552z" color="#000000" color-rendering="auto" dominant-baseline="auto" fill="#808080" image-rendering="auto" shape-rendering="auto" solid-color="#000000" style="font-feature-settings:normal;font-variant-alternates:normal;font-variant-caps:normal;font-variant-ligatures:normal;font-variant-numeric:normal;font-variant-position:normal;isolation:auto;mix-blend-mode:normal;shape-padding:0;text-decoration-color:#000000;text-decoration-line:none;text-decoration-style:solid;text-indent:0;text-orientation:mixed;text-transform:none;white-space:normal"/>
 <path d="m138.2 70.471 0.47736 3.4616c3.9016 1.1919 7.1706 4.4775 8.4306 8.078 1.2599 3.6005-0.28451 6.331-3.4114 6.9621-3.1269 0.63116-7.4209-0.9056-10.589-4.1148-3.1677-3.2092-4.0946-7.1521-2.4615-9.4707l-3.9722-2.2068c-2.4689 3.5051-1.066 8.8049 3.2509 13.178 4.3169 4.3735 10.847 6.9223 15.934 5.8955 5.0868-1.0268 7.156-5.2958 5.4437-10.189-1.7123-4.8931-7.1574-9.7782-13.102-11.594z" color="#000000" color-rendering="auto" dominant-baseline="auto" fill="#f4d700" image-rendering="auto" shape-rendering="auto" solid-color="#000000" style="font-feature-settings:normal;font-variant-alternates:normal;font-variant-caps:normal;font-variant-ligatures:normal;font-variant-numeric:normal;font-variant-position:normal;isolation:auto;mix-blend-mode:normal;shape-padding:0;text-decoration-color:#000000;text-decoration-line:none;text-decoration-style:solid;text-indent:0;text-orientation:mixed;text-transform:none;white-space:normal"/>
 <g transform="translate(-44.257 -21.315)" fill="#090b00">
  <path d="m95.565 131.24-2.8174 9.1025 0.54181-7.6938 2.0589-4.4429z"/>
  <path d="m148.12 131.78 2.8174 9.1025-0.54182-7.6938-2.0589-4.4429z"/>
 </g>
</svg>
