<?xml version="1.0" encoding="UTF-8"?>
<svg enable-background="new 0 0 464.001 464.001" version="1.1" viewBox="0 0 464 464" xml:space="preserve" xmlns="http://www.w3.org/2000/svg">

	<path d="m388.63 437.02-10.126-81.012c-1.529-12.228-9.943-22.492-21.633-26.389l-39.047-13.016c-5.362-1.788-11.244-0.649-15.379 2.874l-11.502-3.834c-6.533-2.178-10.94-8.292-10.94-15.179v-25.802l34.461-14.359c17.887-7.451 29.538-24.928 29.538-44.306v-8c13.255 0 24-10.745 24-24 0-5.979-2.191-11.443-5.808-15.645 6.791-24.718 25.878-102.91 5.808-136.36l8-32s-84 2-128 16l16-16s-112.5 0-135.99 39.993l-7e-3 7e-3s-40-0.333-40 48c0 17.69 9.867 61.862 14.103 80.015-3.793 4.244-6.103 9.844-6.103 15.985 0 13.255 10.745 24 24 24v8c0 19.377 11.651 36.854 29.538 44.308l34.462 14.359v25.801c0 6.887-4.407 13.001-10.94 15.179l-11.502 3.834c-4.135-3.523-10.017-4.662-15.379-2.874l-39.047 13.016c-11.691 3.897-20.105 14.161-21.633 26.389l-10.126 81.012c-1.791 14.324 9.378 26.976 23.814 26.976h265.63c14.436 0 25.606-12.652 23.815-26.977z" fill="#FFD7A3"/>
	
		<path d="m280 274.67-96 1e-3v25.801c0 5.759-3.186 10.831-8.017 13.659 67.094 11.743 104.02-39.461 104.02-39.461z" fill="#FDC88E"/>
	
	
		<path d="M104,176c0,0-16-65.474-16-88c0-48.333,40-48,40-48l0.007-0.007C151.5,0,264,0,264,0l-16,16    C292,2,376,0,376,0l-8,32c24,40-8,144-8,144H104z" fill="#734A3E"/>
	
	
		<path d="m264 0s-112.5 0-135.99 39.993l-7e-3 7e-3s-40-0.333-40 48c0 22.526 16 88 16 88s166.33-74.333 272-176c0 0-84 2-128 16l16-16z" fill="#623F33"/>
	
	<path d="m344 160v-16c0-22.091-17.909-40-40-40h-144c-22.091 0-40 17.909-40 40v16c-13.255 0-24 10.745-24 24s10.745 24 24 24v8c0 19.377 11.651 36.854 29.538 44.308l51.691 21.538c9.75 4.063 20.208 6.154 30.77 6.154s21.019-2.092 30.769-6.154l51.694-21.539c17.887-7.452 29.538-24.929 29.538-44.307v-8c13.255 0 24-10.745 24-24s-10.745-24-24-24z" fill="#FFE1B2"/>
	
		<path d="m176 192c-4.4 0-8-3.6-8-8v-8c0-4.4 3.6-8 8-8s8 3.6 8 8v8c0 4.4-3.6 8-8 8z" fill="#623F33"/>
	
	
		<path d="m288 192c-4.4 0-8-3.6-8-8v-8c0-4.4 3.6-8 8-8s8 3.6 8 8v8c0 4.4-3.6 8-8 8z" fill="#623F33"/>
	
	
		
			<path d="m232 248.22c-14.223 0-27.527-3.5-36.5-9.605-3.652-2.484-4.602-7.461-2.113-11.113 2.48-3.648 7.461-4.598 11.113-2.113 6.289 4.277 16.57 6.832 27.5 6.832s21.211-2.555 27.5-6.832c3.66-2.492 8.629-1.539 11.113 2.113 2.488 3.652 1.539 8.629-2.113 11.113-8.972 6.105-22.277 9.605-36.5 9.605z" fill="#E4B07B"/>
		
	
	
		<path d="m388.63 437.02-10.126-81.012c-1.528-12.228-9.943-22.492-21.633-26.389l-39.047-13.016c-6.8-2.267-14.45 0.154-18.291 6.206-14.182 22.344-39.107 37.187-67.531 37.187s-53.349-14.844-67.53-37.187c-3.841-6.052-11.491-8.473-18.291-6.206l-39.047 13.016c-11.691 3.897-20.105 14.161-21.633 26.389l-10.126 81.012c-1.791 14.324 9.379 26.977 23.815 26.977h265.63c14.435 0 25.605-12.653 23.814-26.977z" fill="#00BEA4"/>
	
	
		<path d="M92.168,340.168c-3.552,4.497-5.93,9.93-6.669,15.843l-10.126,81.012    C73.582,451.348,84.752,464,99.188,464H144v-52.067c0-7.697-2.774-15.135-7.813-20.953L92.168,340.168z" fill="#00AB9A"/>
	
	
		<path d="m371.83 340.17c3.552 4.497 5.93 9.93 6.669 15.843l10.126 81.012c1.791 14.325-9.379 26.977-23.815 26.977h-44.812v-52.067c0-7.697 2.774-15.135 7.813-20.953l44.019-50.812z" fill="#00AB9A"/>
	
	<path d="m162 243.72c-6.482-6.95-9.995-16.121-9.995-25.625v-90.66c25.463-1.909 105.74-8.852 152-23.438h-144c-2.754 0-5.421 0.321-8 0.881v-0.075c-18.257 3.707-32 19.843-32 39.194v16c-13.255 0-24 10.745-24 24s10.745 24 24 24v8c0 19.378 11.651 36.855 29.538 44.308l51.69 21.538c2.53 1.054 5.112 1.962 7.727 2.749-22.844-16.712-38.05-31.321-46.959-40.872z" fill="#FFD7A3"/>
















</svg>
