<?xml version="1.0" encoding="UTF-8" standalone="no"?>
<!-- Generator: Adobe Illustrator 19.1.1, SVG Export Plug-In . SVG Version: 6.00 Build 0)  -->

<svg
   xmlns:dc="http://purl.org/dc/elements/1.1/"
   xmlns:cc="http://creativecommons.org/ns#"
   xmlns:rdf="http://www.w3.org/1999/02/22-rdf-syntax-ns#"
   xmlns:svg="http://www.w3.org/2000/svg"
   xmlns="http://www.w3.org/2000/svg"
   xmlns:sodipodi="http://sodipodi.sourceforge.net/DTD/sodipodi-0.dtd"
   xmlns:inkscape="http://www.inkscape.org/namespaces/inkscape"
   version="1.1"
   x="0px"
   y="0px"
   viewBox="0 0 33.451934 33.451934"
   enable-background="new 0 0 48 48"
   xml:space="preserve"
   width="348.45764"
   height="348.45764"
   id="svg1155"
   sodipodi:docname="Corgi.svg"
   inkscape:version="0.92.3 (2405546, 2018-03-11)"><metadata
   id="metadata1161"><rdf:RDF><cc:Work
       rdf:about=""><dc:format>image/svg+xml</dc:format><dc:type
         rdf:resource="http://purl.org/dc/dcmitype/StillImage" /></cc:Work></rdf:RDF></metadata><defs
   id="defs1159"><clipPath
     clipPathUnits="userSpaceOnUse"
     id="clipPath5421"><rect
       style="opacity:0.96700003;fill:none;fill-opacity:1;stroke:#f76b0c;stroke-width:0.096;stroke-miterlimit:4;stroke-dasharray:none;stroke-opacity:1"
       id="rect5423"
       width="33.355934"
       height="33.355934"
       x="0.048"
       y="0.048"
       rx="0.10885056"
       ry="0.10885056" /></clipPath></defs><sodipodi:namedview
   pagecolor="#ffffff"
   bordercolor="#666666"
   borderopacity="1"
   objecttolerance="10"
   gridtolerance="10"
   guidetolerance="10"
   inkscape:pageopacity="0"
   inkscape:pageshadow="2"
   inkscape:window-width="1209"
   inkscape:window-height="855"
   id="namedview1157"
   showgrid="false"
   inkscape:zoom="0.472"
   inkscape:cx="-68.317603"
   inkscape:cy="115.08332"
   inkscape:window-x="151"
   inkscape:window-y="77"
   inkscape:window-maximized="0"
   inkscape:current-layer="svg1155" />







<g
   id="g5419"
   clip-path="url(#clipPath5421)"><path
     style="fill:#b0bec5"
     inkscape:connector-curvature="0"
     id="path1139"
     d="m 19.048,26.403936 v 13 c 2,0 2,2 2,2 0,0 -2,0 -4,0 -2,0 -2,-2 -2,-2 v -10 z m -26.9999996,6 v 7 c 0,0 0,2 2,2 2,0 4,0 4,0 0,0 0,-2 -2,-2 v -4 z" /><path
     style="fill:#bf360c"
     inkscape:connector-curvature="0"
     id="path1141"
     d="m 2.0480004,21.403936 c 0,0 -11,-3.3 -11,6 0,1.9 1,7 1,7 v 4 l 4,-1 v -1 c 0.9,-1.4 4.29999998,-0.8 7,-3 1.7,-1.3 -1,-12 -1,-12 z" /><path
     style="fill:#e65100"
     inkscape:connector-curvature="0"
     id="path1143"
     d="m -15.752,28.403936 0.9,1 1.7,-1 c 1,-1.8 2.2,-2 2.2,-2 l 2.0000004,-5 c 0,0 -5.8000004,0.3 -6.8000004,7 z" /><path
     style="fill:#cfd8dc"
     inkscape:connector-curvature="0"
     id="path1145"
     d="m -6.9519996,32.403936 v 7 c 2,0 2,2 2,2 0,0 -2,0 -4,0 -2.0000004,0 -2.0000004,-2 -2.0000004,-2 v -7 z m 31.0999996,-19 c 0,0 -0.3,-0.9 -0.9,-1.8 -0.3,-0.5 -0.7,-1 -1.1,-1.2 -1.4,-1.0000004 -3.1,-1.0000004 -3.1,-1.0000004 0,0 -1.8,-6.3 -4,-6 -2.2,0.3 -2,8.0000004 -2,8.0000004 -0.6,0.9 -1,2 -1,2 -1.2,3.2 -3.8999996,7 -5.8999996,7 -2,0 -2,0 -2,0 l -4.00000002,13 c 0,0 3.40000002,1.8 11.39999962,2 l 0.6,4 c 0,0 0,2 2,2 2,0 4,0 4,0 0,0 0,-2 -2,-2 v -4.4 c 6.1,-1.7 6,-8.6 6,-8.6 0,0 -0.6,-3.3 -1,-5 -0.6,-2.5 7.5,-1.4 9,-5 v -2 z m -39.9,15 c -0.1,0.6 -0.2,1.3 -0.2,2 0,0.6 0.4,1 1,1 0.6,0 1,-0.4 1,-1 0.2,-0.8 0.5,-1.5 0.8,-2 z" /><path
     style="fill:#f57f17"
     inkscape:connector-curvature="0"
     id="path1147"
     d="m 11.048,32.403936 0.4,3 c -7.7999996,0 -11.39999962,-2 -11.39999962,-2 0,0 -0.4,-0.1 -1,-0.4 -2.59999998,1.5 -5.59999998,1.3 -5.99999998,3.4 v 1 l -4.0000004,1 v -4 c 0,0 -1,-5.1 -1,-7 0,-9.3 11.00000038,-7 11.00000038,-7 H 6.1480004 c 0,0 0.8,2.2 2.9,4 8.7999996,7.2 1.9999996,8 1.9999996,8 z m 8,-23.0000004 c 0,0 -1.8,-6.3 -4,-6 -2.2,0.3 0,8.0000004 0,8.0000004 0,0 -4,8 0,8 0.8,-1.8 8.3,-2 9,-3 0.7,-1 0.1,-3 0.1,-3 0,0 -0.6,-2 -2,-3 -1.4,-1.0000004 -3.1,-1.0000004 -3.1,-1.0000004 z" /><path
     style="fill:#3e2723"
     inkscape:connector-curvature="0"
     id="path1149"
     d="m 21.048,12.403936 c -0.6,0 -1,0.4 -1,1 v 1 h 1 c 0.6,0 1,-0.4 1,-1 0,-0.6 -0.4,-1 -1,-1 z" /><path
     style="fill:#4e342e"
     inkscape:connector-curvature="0"
     id="path1151"
     d="m 28.048,14.103936 c 0,0.1 0,0.2 0,0.3 0,1.8 2.1,2 2.1,2 v -2 z" /><path
     style="fill:#bf360c"
     inkscape:connector-curvature="0"
     id="path1153"
     d="m 15.048,11.403936 c 0,0 -0.3,-0.9 -0.4,-1.6000004 -0.2,-0.7 -0.4,-1.7 -0.6,-2.7 -0.1,-1 -0.2,-2.1 0.1,-2.8 0.1,-0.4 0.4,-0.6 0.6,-0.7 0.2,-0.2 0.4,-0.2 0.3,-0.2 0,0 -0.1,0 -0.3,0.2 -0.1,0.1 -0.3,0.4 -0.3,0.7 -0.1,0.7 0.2,1.6 0.6,2.5 0.4,0.9 0.8,1.7 1.1,2.3 0.4,0.6 0.6,1.0000004 0.6,1.0000004 0,0 -1,0.3 -1.7,1.3 z" /></g>
</svg>