<?xml version="1.0" encoding="UTF-8" standalone="no"?>
<!-- Generator: Adobe Illustrator 19.1.1, SVG Export Plug-In . SVG Version: 6.00 Build 0)  -->

<svg
   xmlns:dc="http://purl.org/dc/elements/1.1/"
   xmlns:cc="http://creativecommons.org/ns#"
   xmlns:rdf="http://www.w3.org/1999/02/22-rdf-syntax-ns#"
   xmlns:svg="http://www.w3.org/2000/svg"
   xmlns="http://www.w3.org/2000/svg"
   xmlns:sodipodi="http://sodipodi.sourceforge.net/DTD/sodipodi-0.dtd"
   xmlns:inkscape="http://www.inkscape.org/namespaces/inkscape"
   version="1.1"
   id="Layer_1"
   x="0px"
   y="0px"
   viewBox="0 0 33.30927 33.30927"
   enable-background="new 0 0 48 48"
   xml:space="preserve"
   width="346.97156"
   height="346.97156"
   sodipodi:docname="Elephant.svg"
   inkscape:version="0.92.3 (2405546, 2018-03-11)"><metadata
   id="metadata953"><rdf:RDF><cc:Work
       rdf:about=""><dc:format>image/svg+xml</dc:format><dc:type
         rdf:resource="http://purl.org/dc/dcmitype/StillImage" /></cc:Work></rdf:RDF></metadata><defs
   id="defs951"><clipPath
     clipPathUnits="userSpaceOnUse"
     id="clipPath1005"><rect
       style="opacity:0.96700003;fill:none;fill-opacity:1;stroke:#f76b0c;stroke-width:0.096;stroke-miterlimit:4;stroke-dasharray:none;stroke-opacity:1"
       id="rect1007"
       width="31.905214"
       height="31.905214"
       x="15.63981"
       y="3.6966827"
       rx="0.10885056"
       ry="0.10885056" /></clipPath></defs><sodipodi:namedview
   pagecolor="#ffffff"
   bordercolor="#666666"
   borderopacity="1"
   objecttolerance="10"
   gridtolerance="10"
   guidetolerance="10"
   inkscape:pageopacity="0"
   inkscape:pageshadow="2"
   inkscape:window-width="1859"
   inkscape:window-height="1025"
   id="namedview949"
   showgrid="false"
   inkscape:zoom="1.688"
   inkscape:cx="153.3436"
   inkscape:cy="145.64216"
   inkscape:window-x="61"
   inkscape:window-y="27"
   inkscape:window-maximized="1"
   inkscape:current-layer="Layer_1" />





<g
   id="g987"
   clip-path="url(#clipPath1005)"
   transform="translate(-15.648682,-2.2268813)"><path
     id="path936"
     d="M 44,16.5 C 44,10.701 39.299,6 33.5,6 30.902,6 28.529,6.948 26.696,8.511 24.924,7.919 21.459,7 17,7 17,7 4,6.688 4,20 4,25.921 5.559,29.448 6,32 6.51,34.951 6.924,42.083 6.924,42.083 6.967,42.601 7.4,43 7.92,43 H 15 V 33 c 0,0 1.38,1 3,1 1.62,0 3,-1 3,-1 v 9 c 0,0.552 0.448,1 1,1 h 7 c 0,0 0.512,-9.438 1,-12 0.488,-2.562 2,-6 2,-6 8.063,0 8,6 8,6 v 1 c 0,1.103 -0.897,2 -2,2 -1.103,0 -2,-0.897 -2,-2 h -4 c 0,3.309 2.691,6 6,6 3.309,0 6,-2.691 6,-6 V 31 18 17 H 43.97 C 43.983,16.835 44,16.672 44,16.5 Z"
     inkscape:connector-curvature="0"
     style="fill:#78909c" /><circle
     id="circle938"
     r="1"
     cy="17"
     cx="38"
     style="fill:#37474f" /><path
     id="path940"
     d="m 19,15 c 0,5.33 2.689,10.61 8,13 0,0 2.149,-10.725 3,-14 0,0 1,-0.829 1,-2.5 C 31,8.462 28.538,6 25.5,6 22.462,6 19,9.079 19,15 Z"
     inkscape:connector-curvature="0"
     style="fill:#b0bec5" /><path
     id="path942"
     d="M 43.604,26.938 C 43.353,26.902 42.997,26.85 42.582,26.73 42.374,26.679 42.15,26.623 41.921,26.532 41.692,26.444 41.446,26.378 41.209,26.257 40.726,26.044 40.23,25.785 39.771,25.473 38.842,24.866 38.055,24.095 37.549,23.469 37.291,23.16 37.103,22.887 36.98,22.699 36.854,22.506 36.823,22.432 36.809,22.414 l -0.014,0.01 C 36.614,22.174 36.333,22 36,22 c -0.552,0 -1,0.448 -1,1 0,0.219 0.085,0.411 0.204,0.576 l -0.014,0.01 c -0.007,-0.009 0.026,0.029 0.085,0.094 0.012,0.013 0.023,0.027 0.036,0.039 0.054,0.058 0.12,0.128 0.2,0.206 0.204,0.199 0.495,0.469 0.867,0.758 0.733,0.587 1.795,1.246 2.938,1.68 0.566,0.226 1.153,0.386 1.705,0.498 0.272,0.07 0.547,0.086 0.799,0.124 0.252,0.041 0.494,0.048 0.716,0.054 0.442,0.03 0.809,0.003 1.064,-0.015 C 43.855,27.009 44,27 44,27 c 0,0 -0.144,-0.023 -0.396,-0.062 z"
     inkscape:connector-curvature="0"
     style="fill:#efebe9" /><path
     id="path944"
     d="M 29,43 H 22 C 21.507,43 21.116,42.636 21.034,42.167 21.204,40.395 22.684,39 24.5,39 25.039,39 25.544,39.133 26,39.351 26.456,39.133 26.961,39 27.5,39 c 0.626,0 1.206,0.179 1.715,0.468 C 29.084,41.462 29,43 29,43 Z M 9,42.5 C 9,41.672 9.672,41 10.5,41 c 0.828,0 1.5,0.672 1.5,1.5 0,-0.828 0.672,-1.5 1.5,-1.5 0.828,0 1.5,0.672 1.5,1.5 V 39.351 C 14.544,39.133 14.039,39 13.5,39 12.964,39 12.455,39.121 12,39.338 11.545,39.121 11.036,39 10.5,39 8.606,39 7.067,40.515 7.011,42.395 7.165,42.751 7.512,43 7.92,43 H 9 Z M 26.304,27.653 C 21.458,25.127 19,20.09 19,15 19,11.383 20.295,8.832 21.993,7.39 21.216,7.269 20.382,7.166 19.488,7.097 18.001,8.947 17,11.595 17,15 c 0,6.32 3.987,10.122 9.302,12.671 z M 15,32 v 1 c 0,0 1.38,1 3,1 1.62,0 3,-1 3,-1 v -4 c 0,0 -0.664,3 -6,3 z M 29,13 c -0.552,0 -1,0.448 -1,1 0,0.552 1,4 1,4 0,0 1,-3.448 1,-4 0,-0.552 -0.448,-1 -1,-1 z m 1.388,-4.014 c 0.015,0.03 0.029,0.061 0.044,0.091 0.071,0.144 0.136,0.291 0.195,0.442 0.021,0.053 0.04,0.106 0.059,0.16 0.047,0.133 0.088,0.269 0.125,0.407 0.017,0.063 0.034,0.126 0.049,0.19 0.032,0.139 0.056,0.281 0.077,0.424 0.009,0.061 0.021,0.12 0.028,0.182 C 30.986,11.084 31,11.29 31,11.5 c 0,0.132 -0.016,0.249 -0.027,0.37 0.545,-1.532 0.988,-3.661 0.288,-5.62 -0.861,0.189 -1.683,0.479 -2.451,0.865 0,0 0,0 0.001,0 0.656,0.497 1.197,1.134 1.577,1.871 z"
     inkscape:connector-curvature="0"
     style="fill:#546e7a" /><path
     id="path946"
     d="M 9,42.5 C 9,41.672 9.672,41 10.5,41 11.328,41 12,41.672 12,42.5 V 43 H 9 Z m 3,0.5 h 3 V 42.5 C 15,41.672 14.328,41 13.5,41 12.672,41 12,41.672 12,42.5 Z m 11,0 h 3 V 42.5 C 26,41.672 25.328,41 24.5,41 23.672,41 23,41.672 23,42.5 Z m 3,0 h 3 V 42.5 C 29,41.672 28.328,41 27.5,41 26.672,41 26,41.672 26,42.5 Z"
     inkscape:connector-curvature="0"
     style="fill:#cfd8dc" /></g>
</svg>