<?xml version="1.0" encoding="UTF-8" standalone="no"?>
<svg
   xmlns:dc="http://purl.org/dc/elements/1.1/"
   xmlns:cc="http://creativecommons.org/ns#"
   xmlns:rdf="http://www.w3.org/1999/02/22-rdf-syntax-ns#"
   xmlns:svg="http://www.w3.org/2000/svg"
   xmlns="http://www.w3.org/2000/svg"
   xmlns:sodipodi="http://sodipodi.sourceforge.net/DTD/sodipodi-0.dtd"
   xmlns:inkscape="http://www.inkscape.org/namespaces/inkscape"
   width="74.14mm"
   height="71.315mm"
   version="1.1"
   viewBox="0 0 74.14 71.315"
   id="svg967"
   sodipodi:docname="mandrake.svg"
   inkscape:version="0.92.4 (f8dce91, 2019-08-02)">
  <metadata
     id="metadata973">
    <rdf:RDF>
      <cc:Work
         rdf:about="">
        <dc:format>image/svg+xml</dc:format>
        <dc:type
           rdf:resource="http://purl.org/dc/dcmitype/StillImage" />
      </cc:Work>
    </rdf:RDF>
  </metadata>
  <defs
     id="defs971" />
  <sodipodi:namedview
     pagecolor="#ffffff"
     bordercolor="#666666"
     borderopacity="1"
     objecttolerance="10"
     gridtolerance="10"
     guidetolerance="10"
     inkscape:pageopacity="0"
     inkscape:pageshadow="2"
     inkscape:window-width="1850"
     inkscape:window-height="1016"
     id="namedview969"
     showgrid="false"
     inkscape:zoom="0.26922771"
     inkscape:cx="-199.40318"
     inkscape:cy="299.91955"
     inkscape:window-x="70"
     inkscape:window-y="27"
     inkscape:window-maximized="1"
     inkscape:current-layer="svg967" />
  <path
     d="m 46.256672,67.640843 c 1.538931,-4.255918 3.800612,-6.51898 4.859119,-11.238506 1.058591,-4.719166 -4.557015,-7.73248 -2.284341,-12.114339 2.272588,-4.382128 6.089012,-4.858042 11.819524,-6.940009 -4.643681,-1.599225 -18.167689,2.318307 -20.871662,4.089017 -2.704226,1.770709 -6.81041,10.930392 -6.81041,10.930392 0,0 -0.491213,13.486926 4.004214,14.096865 3.609018,0.489335 6.759679,1.046149 9.28381,1.17685 z"
     id="path943"
     inkscape:connector-curvature="0"
     style="fill:#447821;stroke-width:0.87150568" />
  <path
     d="m 41.969886,50.780838 c 0,0 -0.132468,-8.54166 1.412103,-12.815005 1.590507,-4.400722 6.127483,-7.449968 7.642993,-11.878987 1.678357,-4.905112 -1.141706,-10.581856 0.128435,-15.61767 0.539331,-2.1382891 3.082596,-5.8065462 3.082596,-5.8065462 0,0 -4.186338,3.3817026 -5.201892,5.8065462 -1.558801,3.722065 0.728339,8.426949 -0.834858,12.146678 -2.00625,4.774501 -8.629377,6.491762 -10.275605,11.412774 -1.861835,5.566883 1.412864,17.619959 1.412864,17.619959 z"
     id="path945"
     inkscape:connector-curvature="0"
     style="fill:#5aa02c;stroke-width:0.87150568" />
  <path
     d="m 40.684695,33.962155 1.669733,-5.673061 c 0,0 0.271412,-4.626553 0.770649,-6.874344 C 44.461929,15.395309 47.466738,7.032229 50.638875,1.3918661 46.554084,5.2289118 42.642285,13.614 40.684568,20.813794 39.398786,25.543022 37.473537,32.693679 37.473537,32.693679 Z"
     id="path947"
     inkscape:connector-curvature="0"
     style="fill:#5aa02c;stroke-width:0.87150568" />
  <path
     d="m 38.36797,28.889511 c 0,0 1.926264,-7.426612 2.376165,-12.280522 C 41.193994,11.755168 42.156999,6.6649182 39.138662,0.19094221 42.906722,4.2213 42.734997,9.7352735 42.734997,9.7352735 L 42.221242,18.812494 39.973511,29.557839 38.432213,29.15739"
     id="path949"
     inkscape:connector-curvature="0"
     style="fill:#8dd35f;stroke-width:0.87150568" />
  <path
     d="m 34.833697,34.96285 c 0,0 1.373124,-2.975676 1.477039,-4.872145 0.135613,-2.47434 -1.22017,-7.808746 -1.22017,-7.808746 -1.920092,-5.09016 -3.396116,-5.004733 -6.614672,-9.07722 -2.368217,-2.996246 -3.341749,-5.7612728 -3.403726,-11.3463011 1.752763,6.0454917 2.692474,7.1304464 4.302767,9.2766411 2.991112,3.987509 7.093997,4.767135 8.862741,9.476959 1.584081,4.219268 2.44034,13.34859 2.44034,13.34859 l -0.899126,7.47503 z"
     id="path951"
     inkscape:connector-curvature="0"
     style="fill:#5aa02c;stroke-width:0.87150568" />
  <path
     d="m 39.272677,42.504893 c 0,0 -2.146015,-9.854242 -4.559636,-14.148966 C 32.037647,23.59517 26.213029,21.07331 24.116984,16.008931 22.929113,13.138984 24.447253,9.6389768 23.346335,6.73229 c -1.121497,-2.9614825 -5.71563,-7.47503042 -5.71563,-7.47503042 0,0 2.877051,4.91193952 3.403725,7.67525922 0.611903,3.2106682 -0.856343,7.2815392 0.06426,10.4120792 1.584336,5.387225 7.254308,7.750267 9.183193,13.014426 1.545864,4.21819 0.293362,9.07183 1.22017,13.481536 0.595221,2.832039 2.761468,8.209203 2.761468,8.209203 l 2.44034,5.072374 3.724769,-9.811123 z"
     id="path953"
     inkscape:connector-curvature="0"
     style="fill:#2d5016;stroke-width:0.87150568" />
  <path
     d="m 27.486128,40.474757 c -0.333752,-5.935541 -2.765358,-7.430565 -4.843646,-12.403588 -1.219409,-2.917915 -0.92094,-5.845173 -1.357144,-8.028287 -0.373923,-1.871228 -3.339466,-7.037563 -3.339466,-7.037563 0.02676,0.0056 3.823442,3.028405 4.302767,5.20586 0.999743,4.541305 2.796726,8.750781 5.394502,12.547314 1.850674,2.704751 3.588979,5.089352 4.75233,8.008974 2.282988,5.729743 8.1881,27.797584 8.1881,27.797584 0,0 -10.502204,1.799185 -14.227565,-0.988298 -2.214924,-3.611755 -4.770931,-7.513028 -5.04488,-12.770989 -0.327495,-6.285874 6.407097,-8.209922 6.17534,-12.331725 z"
     id="path955"
     inkscape:connector-curvature="0"
     style="fill:#5aa02c;stroke-width:0.87150568" />
  <path
     d="m 25.778178,69.396102 c 2.990097,3.26e-4 19.008135,0.09763 21.301185,-0.20357 -0.03213,-2.502816 4.499266,-3.794198 4.499266,-3.794198 0,0 -9.581433,-0.326762 -10.995143,1.16643 0.320368,-1.176491 -2.344035,-12.514078 -2.344035,-12.514078 0,0 -7.752065,10.912427 -11.883783,11.525959 -1.285783,-1.483706 -4.953902,-1.784543 -4.953902,-1.784543 0,0 3.858023,2.902465 4.37675,5.604162 z"
     id="path957"
     inkscape:connector-curvature="0"
     style="fill:#5aa02c;stroke-width:0.87150568" />
  <ellipse
     style="fill:#000000;fill-opacity:1;stroke:none;stroke-width:1.16763902;stroke-miterlimit:4;stroke-dasharray:none;stroke-opacity:1"
     id="path975"
     cx="27.839777"
     cy="52.899925"
     rx="5.8632922"
     ry="7.1228132" />
  <path
     d="m 31.341924,56.400044 a 4.4961372,5.5812554 0 0 1 -5.975036,1.16113 4.4961372,5.5812554 0 0 1 -1.500883,-7.272466 4.4961372,5.5812554 0 0 1 5.688828,-2.548 4.4961372,5.5812554 0 0 1 2.585769,6.786581 L 27.83978,52.899947 Z"
     id="path959"
     inkscape:connector-curvature="0"
     style="fill:#eeffaa;stroke-width:0.87150568" />
  <ellipse
     style="fill:#000000;fill-opacity:1;stroke:none;stroke-width:1.19485164;stroke-miterlimit:4;stroke-dasharray:none;stroke-opacity:1"
     id="path975-3"
     cx="40.739021"
     cy="53.421104"
     rx="5.9935875"
     ry="7.2965407" />
  <path
     d="m 44.241169,56.921224 a 4.4961372,5.5812554 0 0 1 -5.975036,1.161129 4.4961372,5.5812554 0 0 1 -1.500883,-7.272466 4.4961372,5.5812554 0 0 1 5.688828,-2.547999 4.4961372,5.5812554 0 0 1 2.585769,6.786581 l -4.300822,-1.627343 z"
     id="path961"
     inkscape:connector-curvature="0"
     style="fill:#eeffaa;stroke-width:0.87150568" />
</svg>
